<?xml version="1.0" standalone="no"?><!DOCTYPE svg PUBLIC "-//W3C//DTD SVG 1.1//EN" "http://www.w3.org/Graphics/SVG/1.1/DTD/svg11.dtd"><svg class="icon" width="200px" height="200.00px" viewBox="0 0 1024 1024" version="1.1" xmlns="http://www.w3.org/2000/svg"><path d="M241.361536 256m51.2 0l0 0q51.2 0 51.2 51.2l0 435.2q0 51.2-51.2 51.2l0 0q-51.2 0-51.2-51.2l0-435.2q0-51.2 51.2-51.2Z" fill="#303F5B" /><path d="M266.961536 588.8m25.6 0l0 0q25.6 0 25.6 25.6l0 128q0 25.6-25.6 25.6l0 0q-25.6 0-25.6-25.6l0-128q0-25.6 25.6-25.6Z" fill="#D2DFFE" /><path d="M305.361536 166.4m-166.4 0a166.4 166.4 0 1 0 332.8 0 166.4 166.4 0 1 0-332.8 0Z" fill="#303F5B" /><path d="M369.361536 179.2m-51.2 0a51.2 51.2 0 1 0 102.4 0 51.2 51.2 0 1 0-102.4 0Z" fill="#D2DFFE" /><path d="M190.161536 153.6m25.6 0l25.6 0q25.6 0 25.6 25.6l0 0q0 25.6-25.6 25.6l-25.6 0q-25.6 0-25.6-25.6l0 0q0-25.6 25.6-25.6Z" fill="#D2DFFE" /><path d="M599.761536 486.4m51.2 0l0 0q51.2 0 51.2 51.2l0 435.2q0 51.2-51.2 51.2l0 0q-51.2 0-51.2-51.2l0-435.2q0-51.2 51.2-51.2Z" fill="#303F5B" /><path d="M625.361536 819.2m25.6 0l0 0q25.6 0 25.6 25.6l0 128q0 25.6-25.6 25.6l0 0q-25.6 0-25.6-25.6l0-128q0-25.6 25.6-25.6Z" fill="#D2DFFE" /><path d="M638.161536 396.8m-166.4 0a166.4 166.4 0 1 0 332.8 0 166.4 166.4 0 1 0-332.8 0Z" fill="#303F5B" /><path d="M574.161536 409.6m-51.2 0a51.2 51.2 0 1 0 102.4 0 51.2 51.2 0 1 0-102.4 0Z" fill="#D2DFFE" /><path d="M676.561536 384m25.6 0l25.6 0q25.6 0 25.6 25.6l0 0q0 25.6-25.6 25.6l-25.6 0q-25.6 0-25.6-25.6l0 0q0-25.6 25.6-25.6Z" fill="#D2DFFE" /></svg>