<?xml version="1.0" standalone="no"?><!DOCTYPE svg PUBLIC "-//W3C//DTD SVG 1.1//EN" "http://www.w3.org/Graphics/SVG/1.1/DTD/svg11.dtd"><svg class="icon" width="200px" height="177.78px" viewBox="0 0 1152 1024" version="1.1" xmlns="http://www.w3.org/2000/svg"><path d="M160 704H96v-224a480 480 0 0 1 960 0v224h-64v-224a416 416 0 1 0-832 0v224z" fill="#303F5B" /><path d="M192 512m32 0l0 0q32 0 32 32l0 448q0 32-32 32l0 0q-32 0-32-32l0-448q0-32 32-32Z" fill="#303F5B" /><path d="M192 992h-32a160.192 160.192 0 0 1-160-160v-128a160.192 160.192 0 0 1 160-160h32v448z" fill="#D2DFFE" /><path d="M0 672m32 0l0 0q32 0 32 32l0 128q0 32-32 32l0 0q-32 0-32-32l0-128q0-32 32-32Z" fill="#303F5B" /><path d="M96 448m32 0l0 0q32 0 32 32l0 96q0 32-32 32l0 0q-32 0-32-32l0-96q0-32 32-32Z" fill="#D2DFFE" /><path d="M896 512m32 0l0 0q32 0 32 32l0 448q0 32-32 32l0 0q-32 0-32-32l0-448q0-32 32-32Z" fill="#303F5B" /><path d="M960 544h32a160.192 160.192 0 0 1 160 160v128a160.192 160.192 0 0 1-160 160H960V544z" fill="#D2DFFE" /><path d="M1088 672m32 0l0 0q32 0 32 32l0 128q0 32-32 32l0 0q-32 0-32-32l0-128q0-32 32-32Z" fill="#303F5B" /><path d="M992 448m32 0l0 0q32 0 32 32l0 96q0 32-32 32l0 0q-32 0-32-32l0-96q0-32 32-32Z" fill="#D2DFFE" /></svg>