<?xml version="1.0" standalone="no"?><!DOCTYPE svg PUBLIC "-//W3C//DTD SVG 1.1//EN" "http://www.w3.org/Graphics/SVG/1.1/DTD/svg11.dtd"><svg class="icon" width="200px" height="200.00px" viewBox="0 0 1024 1024" version="1.1" xmlns="http://www.w3.org/2000/svg"><path d="M153.22496 0m51.2 0l409.6 0q51.2 0 51.2 51.2l0 921.6q0 51.2-51.2 51.2l-409.6 0q-51.2 0-51.2-51.2l0-921.6q0-51.2 51.2-51.2Z" fill="#303F5B" /><path d="M178.82496 25.6m25.6 0l409.6 0q25.6 0 25.6 25.6l0 921.6q0 25.6-25.6 25.6l-409.6 0q-25.6 0-25.6-25.6l0-921.6q0-25.6 25.6-25.6Z" fill="#D2DFFE" /><path d="M498.82496 64h-179.2A38.4 38.4 0 0 1 281.22496 25.6a38.4 38.4 0 0 1 9.7792-25.6h236.416a38.4 38.4 0 0 1 9.8048 25.6 38.4 38.4 0 0 1-38.4 38.4z" fill="#303F5B" /><path d="M306.82496 947.2m12.8 0l179.2 0q12.8 0 12.8 12.8l0 0q0 12.8-12.8 12.8l-179.2 0q-12.8 0-12.8-12.8l0 0q0-12.8 12.8-12.8Z" fill="#303F5B" /></svg>