<?xml version="1.0" standalone="no"?><!DOCTYPE svg PUBLIC "-//W3C//DTD SVG 1.1//EN" "http://www.w3.org/Graphics/SVG/1.1/DTD/svg11.dtd"><svg class="icon" width="200px" height="179.02px" viewBox="0 0 1144 1024" version="1.1" xmlns="http://www.w3.org/2000/svg"><path d="M60.235294 0m60.235294 0l481.882353 0q60.235294 0 60.235294 60.235294l0 903.529412q0 60.235294-60.235294 60.235294l-481.882353 0q-60.235294 0-60.235294-60.235294l0-903.529412q0-60.235294 60.235294-60.235294Z" fill="#303F5B" /><path d="M602.352941 180.705882m60.235294 0l421.647059 0q60.235294 0 60.235294 60.235294l0 271.058824q0 60.235294-60.235294 60.235294l-421.647059 0q-60.235294 0-60.235294-60.235294l0-271.058824q0-60.235294 60.235294-60.235294Z" fill="#303F5B" /><path d="M361.411765 301.176471m-240.941177 0a240.941176 240.941176 0 1 0 481.882353 0 240.941176 240.941176 0 1 0-481.882353 0Z" fill="#D2DFFE" /><path d="M361.411765 301.176471m-150.588236 0a150.588235 150.588235 0 1 0 301.176471 0 150.588235 150.588235 0 1 0-301.176471 0Z" fill="#303F5B" /><path d="M240.941176 721.438118m30.117648 0l180.705882 0q30.117647 0 30.117647 30.117647l0 0q0 30.117647-30.117647 30.117647l-180.705882 0q-30.117647 0-30.117648-30.117647l0 0q0-30.117647 30.117648-30.117647Z" fill="#D2DFFE" /><path d="M90.352941 180.705882m0 30.117647l0 120.470589q0 30.117647-30.117647 30.117647l-30.117647 0q-30.117647 0-30.117647-30.117647l0-120.470589q0-30.117647 30.117647-30.117647l30.117647 0q30.117647 0 30.117647 30.117647Z" fill="#303F5B" /><path d="M180.705882 843.294118m30.117647 0l301.176471 0q30.117647 0 30.117647 30.117647l0 0q0 30.117647-30.117647 30.117647l-301.176471 0q-30.117647 0-30.117647-30.117647l0 0q0-30.117647 30.117647-30.117647Z" fill="#D2DFFE" /><path d="M662.588235 240.941176m30.117647 0l361.411765 0q30.117647 0 30.117647 30.117648l0 210.823529q0 30.117647-30.117647 30.117647l-361.411765 0q-30.117647 0-30.117647-30.117647l0-210.823529q0-30.117647 30.117647-30.117648Z" fill="#D2DFFE" /></svg>