<?xml version="1.0" standalone="no"?><!DOCTYPE svg PUBLIC "-//W3C//DTD SVG 1.1//EN" "http://www.w3.org/Graphics/SVG/1.1/DTD/svg11.dtd"><svg class="icon" width="200px" height="168.84px" viewBox="0 0 1213 1024" version="1.1" xmlns="http://www.w3.org/2000/svg"><path d="M179.986487 0m71.994595 0l215.983784 0q71.994595 0 71.994595 71.994595l0 107.991892q0 71.994595-71.994595 71.994595l-215.983784 0q-71.994595 0-71.994595-71.994595l0-107.991892q0-71.994595 71.994595-71.994595Z" fill="#303F5B" /><path d="M0 107.991892m71.994595 0l1007.924327 0q71.994595 0 71.994594 71.994595l0 719.945948q0 71.994595-71.994594 71.994595l-1007.924327 0q-71.994595 0-71.994595-71.994595l0-719.945948q0-71.994595 71.994595-71.994595Z" fill="#303F5B" /><path d="M575.956758 539.959461m-251.981081 0a251.981082 251.981082 0 1 0 503.962163 0 251.981082 251.981082 0 1 0-503.962163 0Z" fill="#D2DFFE" /><path d="M575.956758 539.959461m-143.989189 0a143.98919 143.98919 0 1 0 287.978379 0 143.98919 143.98919 0 1 0-287.978379 0Z" fill="#303F5B" /><path d="M863.935137 251.981082m35.997298 0l71.994595 0q35.997297 0 35.997297 35.997297l0 0q0 35.997297-35.997297 35.997298l-71.994595 0q-35.997297 0-35.997298-35.997298l0 0q0-35.997297 35.997298-35.997297Z" fill="#D2DFFE" /></svg>