<?xml version="1.0" standalone="no"?><!DOCTYPE svg PUBLIC "-//W3C//DTD SVG 1.1//EN" "http://www.w3.org/Graphics/SVG/1.1/DTD/svg11.dtd"><svg class="icon" width="200px" height="100.00px" viewBox="0 0 2048 1024" version="1.1" xmlns="http://www.w3.org/2000/svg"><path d="M0 0m73.066398 0l1315.195171 0q73.066398 0 73.066399 73.066398l0 584.531187q0 73.066398-73.066399 73.066399l-1315.195171 0q-73.066398 0-73.066398-73.066399l0-584.531187q0-73.066398 73.066398-73.066398Z" fill="#303F5B" /><path d="M36.533199 36.533199m36.533199 0l1315.195171 0q36.533199 0 36.533199 36.533199l0 584.531187q0 36.533199-36.533199 36.5332l-1315.195171 0q-36.533199 0-36.533199-36.5332l0-584.531187q0-36.533199 36.533199-36.533199Z" fill="#D2DFFE" /><path d="M73.066398 0h255.732395v730.663984h-255.732395a73.066398 73.066398 0 0 1-73.066398-73.066399V73.066398a73.066398 73.066398 0 0 1 73.066398-73.066398z" fill="#303F5B" /><path d="M1132.529175 0h255.732394a73.066398 73.066398 0 0 1 73.066399 73.066398v584.531187a73.066398 73.066398 0 0 1-73.066399 73.066399h-255.732394V0z" fill="#303F5B" /><path d="M365.331992 73.066398m36.533199 0l657.597585 0q36.533199 0 36.5332 36.5332l0 511.464788q0 36.533199-36.5332 36.533199l-657.597585 0q-36.533199 0-36.533199-36.533199l0-511.464788q0-36.533199 36.533199-36.5332Z" fill="#303F5B" opacity=".2" /><path d="M146.132797 438.39839m18.266599 0l0 0q18.2666 0 18.2666 18.2666l0 73.066398q0 18.2666-18.2666 18.2666l0 0q-18.2666 0-18.266599-18.2666l0-73.066398q0-18.2666 18.266599-18.2666Z" fill="#D2DFFE" /><path d="M164.399396 237.465795m-54.799798 0a54.799799 54.799799 0 1 0 109.599597 0 54.799799 54.799799 0 1 0-109.599597 0Z" fill="#D2DFFE" /><path d="M219.199195 474.931589m0 18.2666l0 0q0 18.2666-18.266599 18.2666l-73.066399 0q-18.2666 0-18.266599-18.2666l0 0q0-18.2666 18.266599-18.2666l73.066399 0q18.2666 0 18.266599 18.2666Z" fill="#D2DFFE" /><path d="M1278.661972 182.665996m18.266599 0l0 0q18.2666 0 18.2666 18.2666l0 73.066398q0 18.2666-18.2666 18.2666l0 0q-18.2666 0-18.266599-18.2666l0-73.066398q0-18.2666 18.266599-18.2666Z" fill="#D2DFFE" /><path d="M1296.928571 493.198189m-54.799799 0a54.799799 54.799799 0 1 0 109.599598 0 54.799799 54.799799 0 1 0-109.599598 0Z" fill="#D2DFFE" /><path d="M1242.128772 255.732394m0-18.266599l0 0q0-18.2666 18.2666-18.2666l73.066398 0q18.2666 0 18.2666 18.2666l0 0q0 18.2666-18.2666 18.266599l-73.066398 0q-18.2666 0-18.2666-18.266599Z" fill="#D2DFFE" /></svg>